<?xml version="1.0" encoding="UTF-8"?>
<!DOCTYPE svg PUBLIC "-//W3C//DTD SVG 1.1//EN" "http://www.w3.org/Graphics/SVG/1.1/DTD/svg11.dtd">
<!-- Creator: CorelDRAW -->
<svg xmlns="http://www.w3.org/2000/svg" xml:space="preserve" width="74.2698mm" height="20.3283mm" version="1.1" style="shape-rendering:geometricPrecision; text-rendering:geometricPrecision; image-rendering:optimizeQuality; fill-rule:evenodd; clip-rule:evenodd"
viewBox="0 0 10810.9 2959.04"
 xmlns:xlink="http://www.w3.org/1999/xlink"
 xmlns:xodm="http://www.corel.com/coreldraw/odm/2003">
 <defs>
  <style type="text/css">
   <![CDATA[
    .fil2 {fill:#2B2A29}
    .fil0 {fill:black}
    .fil1 {fill:black;fill-rule:nonzero}
   ]]>
  </style>
 </defs>
 <g id="Слой_x0020_1">
  <metadata id="CorelCorpID_0Corel-Layer"/>
  <path class="fil0" d="M3863.13 1874.82c3.61,-755.56 936.39,-1003.26 1337.18,-437.66 191.92,270.83 71.97,603.56 283.8,827.13 3.19,-134.02 232.08,-845.11 -325.71,-1241.14 -636.41,-442.02 -1528.92,33.96 -1564.68,775.12 -24.22,502.03 279.52,912.63 730.46,1042.69 297.66,85.85 582.16,25.6 751.07,-73.25 -65.31,-55.42 -112.46,-115.81 -177.24,-201.52 -154.01,44.59 -192.49,68.73 -398.3,43.97 -128.3,-15.43 -243.34,-69.93 -326.74,-131.25 -165.46,-121.6 -301.23,-306.03 -309.84,-604.1zm781.06 -304.41c261.52,26.96 238.97,282.03 268.71,476.86 97.47,577.07 521.81,896.94 1008.25,866.07 603.87,-50.03 767.17,-934.5 143.22,-1046.62 -276.54,-31.46 -543.3,212.14 -436.48,493.14 43.44,114.3 190.73,188.49 301.23,106.2 29.78,-22.18 61.94,-61.44 54.37,-101.37 -56.32,1.97 -53.39,30.54 -121.24,14.41 -80.79,-19.2 -105.18,-115.31 -65.15,-188.93 36.65,-67.44 107.61,-115.42 190.03,-97.32 118.15,25.94 191.12,137.7 200.16,261.78 10.38,142.53 -141.2,299.73 -313.79,304.94 -347.97,10.6 -561.87,-275.67 -625.25,-486.19 -42.39,-140.8 -62.24,-346.93 -95.34,-491.2 -41.44,-180.61 -365.68,-464.32 -726.98,-354.52 -641.81,195.04 -492.76,1289.71 389.03,1078.11l-74.82 -246.25c-201.65,23.71 -317.04,12.87 -401.46,-139.65 -120.34,-217.4 58.66,-474.9 305.52,-449.45zm-2293.6 18.06c155.1,-202.64 116.17,-365.99 122.23,-599.24l-251.39 0 0 250.45c0,171.82 -140.6,312.42 -312.44,312.42l0 0c-171.84,0 -312.42,-140.6 -312.42,-312.42 0,-652.86 -322.76,-1283.21 -1046.26,-1237.31 -603.87,50.03 -785.88,990.66 -161.94,1102.77 276.54,31.47 543.3,-212.14 436.5,-493.12 -43.45,-114.31 -190.73,-188.5 -301.23,-106.2 -29.78,22.17 -61.95,61.44 -54.37,101.36 56.3,-1.95 53.39,-30.54 121.24,-14.41 80.77,19.21 105.17,115.31 65.14,188.94 -36.64,67.42 -107.61,115.42 -190.03,97.32 -118.15,-25.95 -191.12,-137.72 -200.16,-261.78 -10.36,-142.55 151.09,-349.25 323.69,-354.44 311.29,-9.48 462.29,173.63 583.04,362.32 253.54,396.24 147.41,1025.24 170.47,1438.94 88.4,-50.67 146.16,-172.86 397.08,-231.14 90.71,-21.06 186.36,-10.92 277.5,-31.21 163.7,-36.46 227.15,-97.28 333.35,-213.25zm-1207.73 1274.53c-0.09,-561.32 170.79,-1847.09 -164.09,-2151.56l-69.96 2151.56 234.05 0zm1341.32 -1169.73c-65.36,83.98 -128.42,151.01 -221.92,212.93 123.22,49.81 254.43,204.73 318.29,358.2 74.75,179.64 54.75,388.65 55.63,598.6l266.9 0c15.63,-842.63 -139.46,-817.57 -234.31,-973.42 206,-199 273.21,-526.62 291.33,-873.51 18.59,-356.35 200.4,-692.16 634.03,-699.27l0 -255.84c-693.87,1 -872.37,470.59 -900.33,902.66 -21.51,332.45 -80.45,559.63 -209.61,729.65zm-262.52 1169.73l240.28 0c26.71,-315.01 23.46,-611.76 -264.3,-803.85 -268.02,-178.94 -670.72,-61.19 -812.69,269.9 -42.05,98.04 -50.04,388.1 -42.45,533.95l254.3 0 0 -316.18c0,-171.84 140.58,-312.44 312.42,-312.44l0 0c171.84,0 312.44,140.6 312.44,312.44l0 316.18zm877.39 -1122.23l376.54 8.04c9.43,-90.7 29.62,-178.18 59.17,-261.24l-160.1 -3.89c-13.28,-66.62 -13.06,-420.68 -1,-490.28 11.44,-66.14 52.33,-126.55 86.14,-161.82 83.09,-86.64 119,-57.08 134.33,-80.89l0 -258.69c-227.25,12.15 -413.86,216.99 -466.34,404.47 -65.39,233.61 18.15,618.42 -28.73,844.31zm272.35 441.26l140.76 -5.09c-24.11,-85.17 -38.43,-174.43 -41.85,-266.48l-363.96 6.65 1.35 945.89 260.02 0 3.68 -680.97zm-441.65 -117.03l-5.92 -343.27 -102.51 180.95 108.43 162.32z"/>
  <path class="fil1" d="M7732.4 1000.52l3.76 -194.38 158.94 -380.94 116.8 0 -279.49 575.32zm-79.06 120.55l0 -695.88 104.86 0 0 695.88 -104.86 0zm263.8 0l-124.47 -376.19 71.72 -71.22 169.39 447.42 -116.64 0z"/>
  <polygon id="_1" class="fil1" points="8402.47,425.2 8272.77,842.08 8272.77,1121.08 8167.91,1121.08 8167.91,842.08 8033.47,425.2 8141.11,425.2 8219.52,719.08 8294.17,425.2 "/>
  <path id="_2" class="fil1" d="M8488.07 826.72l0 -99.97 126.92 0c20.1,0 35.62,-5.39 46.57,-16.33 11.11,-10.79 16.49,-25.97 16.49,-45.42l0 -74.16c0,-20.74 -5.39,-36.91 -16.49,-48.52 -10.95,-11.76 -26.46,-17.47 -46.57,-17.47l-126.92 0 0 -100.13 119.24 0c37.23,0 69.26,6.2 95.72,18.46 26.46,12.24 46.71,30.22 60.76,53.9 14.06,23.52 21.08,52.11 21.08,85.59l0 81.35c0,34.47 -7.02,63.87 -21.08,88.05 -14.05,24.34 -34.29,42.8 -60.76,55.53 -26.46,12.74 -58.49,19.11 -95.72,19.11l-119.24 0zm-47.86 294.36l0 -696.36 103.39 0 0 696.36 -103.39 0zm250.73 0l-94.73 -315.91 97.19 -21.89 111.08 337.81 -113.54 0z"/>
  <path id="_3" class="fil1" d="M9033.67 745.86l172.33 0 0 205.83c0,36.91 -6.7,68.6 -20.09,94.91 -13.41,26.46 -32.68,46.55 -57.83,60.6 -25.31,14.05 -55.87,21.08 -91.97,21.08 -36.1,0 -66.97,-6.7 -92.78,-20.1 -25.97,-13.39 -45.58,-32.66 -59.14,-57.98 -13.55,-25.17 -20.41,-55.55 -20.41,-91.31l0 -361.82c0,-37.9 6.7,-70.25 20.09,-96.87 13.39,-26.62 32.84,-47.05 58.15,-61.09 25.49,-14.05 55.87,-21.06 91.15,-21.06 35.12,0 65.18,6.86 90,20.41 24.99,13.57 43.95,33.33 57.02,59.3 13.06,25.97 19.77,57.34 20.09,94.09l0 43.93 -109.11 0 -0.49 -43.93c0,-22.05 -4.91,-39.21 -14.86,-51.46 -9.8,-12.26 -24.02,-18.3 -42.64,-17.98 -20.09,-0.32 -35.78,6.22 -47.05,19.45 -11.27,13.23 -16.83,31.53 -16.49,55.21l0 361.82c-0.33,20.41 5.39,36.26 17.15,47.86 11.92,11.43 28.25,17.15 49.33,17.15 20.74,-0.33 37.07,-6.7 48.84,-19.11 11.76,-12.42 17.48,-29.9 17.16,-52.11l0.48 -107.32 -68.92 0.49 0 -99.97z"/>
  <polygon id="_4" class="fil1" points="9608,425.2 9478.31,842.08 9478.31,1121.08 9373.44,1121.08 9373.44,842.08 9239,425.2 9346.64,425.2 9425.06,719.08 9499.7,425.2 "/>
  <polygon id="_5" class="fil1" points="9902.69,425.2 9902.69,516.69 9722.68,1021.11 9907.42,1021.11 9907.42,1121.08 9613.23,1121.08 9613.23,1029.61 9795.04,525.34 9621.73,525.34 9621.73,425.2 "/>
  <path id="_6" class="fil1" d="M7652.85 2024.31l0.49 -695.88 104.86 0 0 695.88 -105.36 0zm50.8 -289.45l0 -100.13 230.16 0.48 0 99.65 -230.16 0zm0 -306.29l0 -100.13 254.18 0 0 100.13 -254.18 0z"/>
  <polygon id="_7" class="fil1" points="8123.95,1328.43 8123.95,2024.31 8019.08,2024.31 8019.08,1328.43 "/>
  <polygon id="_8" class="fil1" points="8209.06,2023.81 8209.06,1328.43 8295.3,1328.43 8472.38,1827.64 8458.49,1843 8458.49,1328.43 8556.01,1328.43 8556.01,2023.81 8468.45,2023.81 8292.86,1546.18 8306.73,1530.82 8306.73,2023.81 "/>
  <path id="_9" class="fil1" d="M8603.37 2024.31l163.19 -695.88 83.31 0 163.69 695.88 -107.66 0 -97.67 -504.91 -97.19 504.91 -107.66 0zm107.66 -130.19l0 -98.01 198.14 0 0 98.01 -198.14 0z"/>
  <polygon id="_10" class="fil1" points="9070.4,2023.81 9070.4,1328.43 9156.64,1328.43 9333.72,1827.64 9319.83,1843 9319.83,1328.43 9417.34,1328.43 9417.34,2023.81 9329.79,2023.81 9154.2,1546.18 9168.07,1530.82 9168.07,2023.81 "/>
  <path id="_11" class="fil1" d="M9672.02 2031.5c-34.47,0 -63.87,-7.03 -88.53,-21.08 -24.51,-14.05 -43.29,-34.29 -56.2,-60.76 -12.9,-26.46 -19.43,-58.33 -19.43,-95.74l0 -355.11c0,-37.57 6.54,-69.75 19.43,-96.22 12.91,-26.46 31.69,-46.55 56.2,-60.44 24.66,-13.89 54.06,-20.9 88.53,-20.9 35.12,0 64.85,7.02 89.35,20.9 24.34,13.89 42.97,33.97 55.87,60.44 12.91,26.46 19.45,58.65 19.45,96.22l0 43.12 -106.19 0 0 -43.12c0,-15.36 -2.29,-28.43 -6.7,-39.2 -4.57,-10.79 -11.11,-19.29 -19.77,-25.17 -8.49,-5.88 -19.27,-8.82 -32.01,-8.82 -18.14,0 -32.34,6.38 -42.64,19.11 -10.13,12.75 -15.2,30.87 -15.2,54.08l0 355.11c0,23.04 5.07,40.84 15.2,53.58 10.29,12.75 24.5,19.11 42.64,19.11 18.78,0 33.32,-6.36 43.29,-19.11 10.12,-12.74 15.18,-30.7 15.18,-54.06l0 -42.64 106.19 0 0 42.64c0,37.73 -6.54,69.75 -19.45,96.22 -12.9,26.46 -31.53,46.71 -55.87,60.76 -24.5,14.05 -54.22,21.08 -89.35,21.08z"/>
  <polygon id="_12" class="fil1" points="10007.54,1328.43 10007.54,2024.31 9902.68,2024.31 9902.68,1328.43 "/>
  <path id="_13" class="fil1" d="M10049.52 2024.31l163.19 -695.88 83.31 0 163.69 695.88 -107.66 0 -97.67 -504.91 -97.19 504.91 -107.66 0zm107.66 -130.19l0 -98.01 198.14 0 0 98.01 -198.14 0z"/>
  <path id="_14" class="fil1" d="M10516.05 2024.31l0.49 -695.88 104.86 0 0 695.88 -105.36 0zm49.33 0l0 -99.97 245.52 0 0 99.97 -245.52 0z"/>
  <path id="_15" class="fil1" d="M7619.85 2927.54l163.19 -695.88 83.31 0 163.69 695.88 -107.66 0 -97.67 -504.91 -97.19 504.91 -107.66 0zm107.66 -130.19l0 -98.01 198.14 0 0 98.01 -198.14 0z"/>
  <path id="_16" class="fil1" d="M8086.38 2927.54l0.49 -695.88 104.86 0 0 695.88 -105.36 0zm49.33 0l0 -99.97 245.52 0 0 99.97 -245.52 0z"/>
  <path id="_17" class="fil1" d="M8447.21 2927.54l0.49 -695.88 104.86 0 0 695.88 -105.36 0zm49.33 0l0 -99.97 245.52 0 0 99.97 -245.52 0z"/>
  <polygon id="_18" class="fil1" points="8908.18,2231.66 8908.18,2927.54 8803.32,2927.54 8803.32,2231.66 "/>
  <path id="_19" class="fil1" d="M8950.16 2927.54l163.19 -695.88 83.31 0 163.69 695.88 -107.66 0 -97.67 -504.91 -97.19 504.91 -107.66 0zm107.66 -130.19l0 -98.01 198.14 0 0 98.01 -198.14 0z"/>
  <polygon id="_20" class="fil1" points="9417.18,2927.04 9417.18,2231.66 9503.43,2231.66 9680.51,2730.87 9666.62,2746.23 9666.62,2231.66 9764.13,2231.66 9764.13,2927.04 9676.58,2927.04 9500.98,2449.41 9514.86,2434.05 9514.86,2927.04 "/>
  <path id="_21" class="fil1" d="M10018.81 2934.73c-34.47,0 -63.87,-7.03 -88.53,-21.08 -24.51,-14.05 -43.29,-34.29 -56.2,-60.76 -12.9,-26.46 -19.43,-58.33 -19.43,-95.74l0 -355.11c0,-37.57 6.54,-69.75 19.43,-96.22 12.91,-26.46 31.69,-46.55 56.2,-60.44 24.66,-13.89 54.06,-20.9 88.53,-20.9 35.12,0 64.85,7.02 89.35,20.9 24.34,13.89 42.97,33.97 55.87,60.44 12.91,26.46 19.45,58.65 19.45,96.22l0 43.12 -106.19 0 0 -43.12c0,-15.36 -2.29,-28.43 -6.7,-39.2 -4.57,-10.79 -11.11,-19.29 -19.77,-25.17 -8.49,-5.88 -19.27,-8.82 -32.01,-8.82 -18.14,0 -32.34,6.38 -42.64,19.11 -10.13,12.75 -15.2,30.87 -15.2,54.08l0 355.11c0,23.04 5.07,40.84 15.2,53.58 10.29,12.75 24.5,19.11 42.64,19.11 18.78,0 33.32,-6.36 43.29,-19.11 10.12,-12.74 15.18,-30.7 15.18,-54.06l0 -42.64 106.19 0 0 42.64c0,37.73 -6.54,69.75 -19.45,96.22 -12.9,26.46 -31.53,46.71 -55.87,60.76 -24.5,14.05 -54.22,21.08 -89.35,21.08z"/>
  <path id="_22" class="fil1" d="M10254.2 2927.54l0.49 -695.88 104.86 0 0 695.88 -105.36 0zm50.31 0l0 -100.95 254.18 0 0 100.95 -254.18 0zm0 -295.33l0 -100.96 230.16 0.49 0 100.47 -230.16 0zm0 -299.6l0 -100.95 254.18 0 0 100.95 -254.18 0z"/>
  <rect class="fil2" x="7009.93" y="393.73" width="38.87" height="2565.31"/>
 </g>
</svg>
