<?xml version="1.0" encoding="UTF-8"?>
<!DOCTYPE svg PUBLIC "-//W3C//DTD SVG 1.1//EN" "http://www.w3.org/Graphics/SVG/1.1/DTD/svg11.dtd">
<!-- Creator: CorelDRAW -->
<svg xmlns="http://www.w3.org/2000/svg" xml:space="preserve" width="26.0648mm" height="26.0648mm" version="1.1" style="shape-rendering:geometricPrecision; text-rendering:geometricPrecision; image-rendering:optimizeQuality; fill-rule:evenodd; clip-rule:evenodd"
viewBox="0 0 24.14 24.14"
 xmlns:xlink="http://www.w3.org/1999/xlink"
 xmlns:xodm="http://www.corel.com/coreldraw/odm/2003">
 <defs>
  <style type="text/css">
   <![CDATA[
    .str0 {stroke:black;stroke-width:0.19;stroke-miterlimit:22.9256}
    .fil1 {fill:none}
    .fil0 {fill:black}
   ]]>
  </style>
 </defs>
 <g id="Слой_x0020_1">
  <metadata id="CorelCorpID_0Corel-Layer"/>
  <path class="fil0 str0" d="M10.67 14.15l-0.02 -1.14 -0.34 0.6 0.36 0.54zm1.47 0.39l1.06 -0.03c-0.08,-0.28 -0.13,-0.58 -0.14,-0.88l-1.8 0.04 0 3.14 0.86 0 0.01 -2.26zm-0.9 -1.47l1.84 0.01c0.03,-0.3 0.1,-0.59 0.2,-0.87l-1.12 0c-0.04,-0.22 -0.04,-1.4 -0,-1.63 0.04,-0.22 0.17,-0.42 0.29,-0.54 0.4,-0.41 1.23,-0.27 1.79,-0.26l0.02 -0.87 -1.36 0c-0.75,0.04 -1.37,0.72 -1.55,1.34 -0.22,0.78 0.06,2.05 -0.1,2.8zm-2.91 3.73l0.8 0c0.09,-1.05 0.08,-2.03 -0.88,-2.67 -0.89,-0.59 -2.23,-0.2 -2.7,0.9 -0.14,0.33 -0.17,1.29 -0.14,1.77l0.84 0 0 -1.05c0,-0.57 0.47,-1.04 1.04,-1.04l0 0c0.57,0 1.04,0.47 1.04,1.04l0 1.05zm0.87 -3.88c-0.22,0.28 -0.43,0.5 -0.74,0.71 0.41,0.17 0.84,0.68 1.06,1.19 0.25,0.6 0.18,1.29 0.18,1.99l0.89 0c0.05,-2.8 -0.46,-2.71 -0.78,-3.23 0.68,-0.66 0.91,-1.75 0.97,-2.9 0.06,-1.18 0.67,-2.3 2.11,-2.32l1.37 0.03 0.03 -0.84 -1.4 -0.03c-2.3,0 -2.9,1.56 -2.99,3 -0.07,1.1 -0.27,1.86 -0.7,2.42zm-4.45 3.88c-0,-1.86 0.57,-6.13 -0.54,-7.14l-0.23 7.14 0.78 0zm4.01 -4.23c0.52,-0.67 0.39,-1.22 0.41,-1.99l-0.83 0 0 0.83c0,0.57 -0.47,1.04 -1.04,1.04l0 0c-0.57,0 -1.04,-0.47 -1.04,-1.04 0,-2.17 -1.07,-4.26 -3.47,-4.11 -2.01,0.17 -2.61,3.29 -0.54,3.66 0.92,0.1 1.8,-0.7 1.45,-1.64 -0.14,-0.38 -0.63,-0.63 -1,-0.35 -0.1,0.07 -0.21,0.2 -0.18,0.34 0.19,-0.01 0.18,-0.1 0.4,-0.05 0.27,0.06 0.35,0.38 0.22,0.63 -0.12,0.22 -0.36,0.38 -0.63,0.32 -0.39,-0.09 -0.63,-0.46 -0.66,-0.87 -0.03,-0.47 0.5,-1.16 1.07,-1.18 1.03,-0.03 1.53,0.58 1.94,1.2 0.84,1.32 0.49,3.4 0.57,4.78 0.29,-0.17 0.49,-0.57 1.32,-0.77 0.3,-0.07 0.62,-0.04 0.92,-0.1 0.54,-0.12 0.75,-0.32 1.11,-0.71zm8.16 -0.08c0.87,-0.01 0.9,0.84 1.07,1.47 0.54,1.87 2.07,2.76 3.66,2.47 1.97,-0.4 2.17,-3.38 0.07,-3.51 -0.92,0 -1.71,0.91 -1.25,1.79 0.19,0.36 0.7,0.55 1.03,0.23 0.09,-0.08 0.18,-0.23 0.14,-0.36 -0.19,0.03 -0.16,0.12 -0.39,0.09 -0.27,-0.03 -0.39,-0.34 -0.29,-0.6 0.09,-0.24 0.31,-0.42 0.59,-0.39 0.4,0.04 0.68,0.38 0.76,0.79 0.09,0.47 -0.35,1.04 -0.92,1.13 -1.14,0.17 -1.96,-0.69 -2.25,-1.36 -0.19,-0.45 -0.34,-1.12 -0.5,-1.58 -0.21,-0.58 -1.38,-1.39 -2.53,-0.89 -2.04,0.89 -1.13,4.44 1.7,3.41l-0.34 -0.78c-0.66,0.16 -1.04,0.16 -1.38,-0.31 -0.48,-0.67 0.01,-1.59 0.84,-1.6zm-2.46 1.3c-0.28,-2.49 2.7,-3.67 4.24,-1.96 0.74,0.82 0.47,1.96 1.25,2.62 -0.04,-0.44 0.44,-2.88 -1.55,-3.97 -2.27,-1.21 -5.03,0.7 -4.86,3.16 0.11,1.66 1.27,2.9 2.81,3.16 1.01,0.17 1.93,-0.14 2.45,-0.53 -0.24,-0.16 -0.42,-0.34 -0.66,-0.6 -0.49,0.21 -0.61,0.3 -1.3,0.3 -0.43,-0 -0.83,-0.14 -1.13,-0.31 -0.59,-0.34 -1.11,-0.89 -1.25,-1.87z"/>
  <circle class="fil1" cx="12.07" cy="12.07" r="12.07"/>
 </g>
</svg>
