<?xml version="1.0" encoding="UTF-8"?>
<!DOCTYPE svg PUBLIC "-//W3C//DTD SVG 1.1//EN" "http://www.w3.org/Graphics/SVG/1.1/DTD/svg11.dtd">
<!-- Creator: CorelDRAW -->
<svg xmlns="http://www.w3.org/2000/svg" xml:space="preserve" width="44.3815mm" height="20.0284mm" version="1.1" style="shape-rendering:geometricPrecision; text-rendering:geometricPrecision; image-rendering:optimizeQuality; fill-rule:evenodd; clip-rule:evenodd"
viewBox="0 0 3860.48 1742.15"
 xmlns:xlink="http://www.w3.org/1999/xlink"
 xmlns:xodm="http://www.corel.com/coreldraw/odm/2003">
 <defs>
  <style type="text/css">
   <![CDATA[
    .fil0 {fill:black}
   ]]>
  </style>
 </defs>
 <g id="Слой_x0020_1">
  <metadata id="CorelCorpID_0Corel-Layer"/>
  <path class="fil0" d="M2308.49 1120.34c2.16,-451.5 559.56,-599.52 799.06,-261.53 114.69,161.84 43,360.67 169.59,494.27 1.9,-80.09 138.69,-505.01 -194.64,-741.67 -380.3,-264.14 -913.64,20.29 -935.01,463.19 -14.47,300 167.04,545.36 436.5,623.08 177.87,51.3 347.88,15.3 448.82,-43.77 -39.03,-33.11 -67.2,-69.2 -105.91,-120.42 -92.03,26.64 -115.03,41.07 -238.01,26.28 -76.67,-9.22 -145.41,-41.79 -195.25,-78.43 -98.87,-72.67 -180,-182.88 -185.15,-360.99zm466.74 -181.91c156.28,16.11 142.8,168.53 160.57,284.96 58.24,344.84 311.82,535.99 602.5,517.54 360.85,-29.9 458.44,-558.43 85.58,-625.43 -165.25,-18.8 -324.66,126.77 -260.83,294.68 25.96,68.3 113.98,112.64 180,63.46 17.8,-13.26 37.01,-36.72 32.49,-60.58 -33.65,1.17 -31.91,18.25 -72.45,8.61 -48.28,-11.47 -62.85,-68.91 -38.93,-112.9 21.9,-40.3 64.31,-68.97 113.56,-58.16 70.6,15.5 114.21,82.29 119.61,156.43 6.2,85.17 -84.37,179.11 -187.51,182.22 -207.94,6.33 -335.76,-164.73 -373.63,-290.54 -25.33,-84.14 -37.19,-207.32 -56.97,-293.53 -24.76,-107.93 -218.52,-277.46 -434.42,-211.85 -383.53,116.55 -294.46,770.7 232.47,644.25l-44.71 -147.15c-120.5,14.17 -189.45,7.69 -239.9,-83.45 -71.91,-129.91 35.05,-283.79 182.57,-268.58zm-1370.59 10.79c92.68,-121.09 69.42,-218.7 73.04,-358.09l-150.22 0 0 149.66c0,102.68 -84.02,186.69 -186.7,186.69l0 0c-102.68,0 -186.69,-84.02 -186.69,-186.69 0,-390.13 -192.87,-766.81 -625.21,-739.38 -360.85,29.9 -469.62,591.99 -96.77,658.98 165.25,18.81 324.66,-126.77 260.84,-294.68 -25.96,-68.31 -113.98,-112.64 -180,-63.46 -17.8,13.25 -37.02,36.72 -32.49,60.57 33.65,-1.17 31.91,-18.25 72.45,-8.61 48.27,11.48 62.85,68.91 38.93,112.91 -21.89,40.29 -64.31,68.97 -113.56,58.16 -70.6,-15.51 -114.21,-82.3 -119.61,-156.43 -6.19,-85.18 90.29,-208.7 193.43,-211.81 186.02,-5.66 276.25,103.75 348.41,216.51 151.51,236.78 88.09,612.65 101.87,859.87 52.83,-30.28 87.34,-103.29 237.28,-138.12 54.21,-12.59 111.37,-6.52 165.83,-18.65 97.82,-21.79 135.74,-58.13 199.2,-127.43zm-721.71 761.62c-0.05,-335.43 102.06,-1103.77 -98.06,-1285.71l-41.8 1285.71 139.86 0zm801.53 -698.99c-39.06,50.18 -76.74,90.24 -132.62,127.24 73.63,29.77 152.04,122.34 190.2,214.05 44.67,107.35 32.71,232.25 33.25,357.7l159.49 0c9.34,-503.53 -83.34,-488.55 -140.02,-581.69 123.1,-118.92 163.26,-314.69 174.09,-521.98 11.11,-212.95 119.75,-413.62 378.88,-417.86l0 -152.88c-414.64,0.6 -521.3,281.21 -538.01,539.41 -12.86,198.66 -48.08,334.42 -125.26,436.02zm-156.88 698.99l143.58 0c15.96,-188.24 14.02,-365.57 -157.94,-480.36 -160.16,-106.93 -400.8,-36.57 -485.64,161.29 -25.13,58.58 -29.91,231.92 -25.36,319.07l151.96 0 0 -188.94c0,-102.68 84.01,-186.7 186.69,-186.7l0 0c102.68,0 186.7,84.02 186.7,186.7l0 188.94zm524.3 -670.61l225.01 4.8c5.64,-54.2 17.7,-106.48 35.36,-156.11l-95.67 -2.32c-7.93,-39.81 -7.8,-251.38 -0.6,-292.98 6.84,-39.53 31.27,-75.62 51.48,-96.7 49.65,-51.77 71.11,-34.11 80.27,-48.34l0 -154.59c-135.8,7.26 -247.31,129.67 -278.67,241.7 -39.07,139.6 10.85,369.55 -17.17,504.53zm162.75 263.68l84.11 -3.04c-14.4,-50.89 -22.96,-104.23 -25.01,-159.24l-217.49 3.98 0.81 565.24 155.38 0 2.2 -406.93zm-263.92 -69.94l-3.54 -205.13 -61.25 108.13 64.79 97z"/>
 </g>
</svg>
