<?xml version="1.0" encoding="UTF-8"?>
<!DOCTYPE svg PUBLIC "-//W3C//DTD SVG 1.1//EN" "http://www.w3.org/Graphics/SVG/1.1/DTD/svg11.dtd">
<!-- Creator: CorelDRAW -->
<svg xmlns="http://www.w3.org/2000/svg" xml:space="preserve" width="73.9355mm" height="20.3283mm" version="1.1" style="shape-rendering:geometricPrecision; text-rendering:geometricPrecision; image-rendering:optimizeQuality; fill-rule:evenodd; clip-rule:evenodd"
viewBox="0 0 10713.8 2945.72"
 xmlns:xlink="http://www.w3.org/1999/xlink"
 xmlns:xodm="http://www.corel.com/coreldraw/odm/2003">
 <defs>
  <style type="text/css">
   <![CDATA[
    .fil2 {fill:#2B2A29}
    .fil0 {fill:black}
    .fil1 {fill:black;fill-rule:nonzero}
   ]]>
  </style>
 </defs>
 <g id="Слой_x0020_1">
  <metadata id="CorelCorpID_0Corel-Layer"/>
  <path class="fil0" d="M3845.74 1866.38c3.59,-752.16 932.17,-998.74 1331.16,-435.69 191.06,269.61 71.64,600.84 282.53,823.41 3.17,-133.42 231.04,-841.3 -324.24,-1235.55 -633.55,-440.03 -1522.03,33.81 -1557.64,771.63 -24.11,499.77 278.27,908.53 727.17,1038 296.32,85.47 579.54,25.49 747.69,-72.92 -65.02,-55.17 -111.96,-115.29 -176.44,-200.61 -153.31,44.39 -191.63,68.43 -396.51,43.78 -127.72,-15.36 -242.24,-69.61 -325.27,-130.66 -164.72,-121.06 -299.87,-304.65 -308.45,-601.38zm777.54 -303.04c260.34,26.84 237.89,280.76 267.5,474.72 97.03,574.47 519.46,892.9 1003.72,862.17 601.15,-49.8 763.72,-930.29 142.57,-1041.91 -275.29,-31.31 -540.85,211.19 -434.52,490.92 43.24,113.78 189.87,187.64 299.87,105.72 29.65,-22.08 61.66,-61.17 54.12,-100.91 -56.06,1.96 -53.15,30.4 -120.69,14.35 -80.42,-19.11 -104.71,-114.8 -64.86,-188.08 36.49,-67.14 107.13,-114.9 189.18,-96.89 117.62,25.82 190.26,137.08 199.26,260.6 10.33,141.89 -140.56,298.38 -312.38,303.57 -346.4,10.55 -559.34,-274.43 -622.44,-484.01 -42.2,-140.17 -61.96,-345.37 -94.91,-488.99 -41.26,-179.8 -364.04,-462.23 -723.71,-352.92 -638.93,194.16 -490.54,1283.91 387.28,1073.26l-74.48 -245.14c-200.74,23.61 -315.61,12.81 -399.65,-139.02 -119.79,-216.42 58.4,-472.76 304.15,-447.43zm-2283.28 17.98c154.4,-201.73 115.65,-364.34 121.68,-596.54l-250.26 0 0 249.33c0,171.05 -139.97,311.01 -311.03,311.01l0 0c-171.06,0 -311.01,-139.97 -311.01,-311.01 0,-649.92 -321.3,-1277.43 -1041.55,-1231.74 -601.15,49.8 -782.34,986.2 -161.21,1097.8 275.29,31.33 540.85,-211.19 434.53,-490.9 -43.25,-113.8 -189.87,-187.66 -299.87,-105.72 -29.65,22.07 -61.67,61.17 -54.12,100.9 56.05,-1.94 53.15,-30.4 120.69,-14.35 80.41,19.13 104.7,114.8 64.85,188.09 -36.47,67.12 -107.13,114.9 -189.18,96.89 -117.62,-25.84 -190.26,-137.1 -199.26,-260.6 -10.32,-141.91 150.41,-347.68 322.23,-352.85 309.88,-9.43 460.21,172.85 580.41,360.69 252.4,394.45 146.75,1020.63 169.7,1432.47 88,-50.44 145.5,-172.08 395.29,-230.1 90.31,-20.97 185.52,-10.87 276.25,-31.07 162.96,-36.3 226.13,-96.84 331.85,-212.29zm-1202.3 1268.79c-0.09,-558.79 170.02,-1838.77 -163.35,-2141.88l-69.64 2141.88 233 0zm1335.28 -1164.46c-65.06,83.6 -127.84,150.33 -220.93,211.97 122.66,49.59 253.28,203.81 316.85,356.59 74.41,178.83 54.5,386.9 55.38,595.9l265.7 0c15.56,-838.84 -138.84,-813.89 -233.26,-969.04 205.07,-198.1 271.98,-524.25 290.02,-869.57 18.5,-354.75 199.49,-689.05 631.17,-696.12l0 -254.69c-690.74,1 -868.44,468.47 -896.28,898.6 -21.42,330.95 -80.09,557.11 -208.67,726.36zm-261.34 1164.46l239.2 0c26.59,-313.59 23.36,-609 -263.11,-800.24 -266.82,-178.13 -667.7,-60.92 -809.03,268.69 -41.86,97.6 -49.82,386.35 -42.25,531.55l253.15 0 0 -314.75c0,-171.06 139.95,-311.03 311.01,-311.03l0 0c171.06,0 311.03,139.97 311.03,311.03l0 314.75zm873.44 -1117.18l374.85 8c9.39,-90.29 29.49,-177.38 58.9,-260.07l-159.38 -3.87c-13.22,-66.32 -13,-418.78 -1,-488.08 11.39,-65.85 52.09,-125.98 85.76,-161.09 82.71,-86.25 118.46,-56.82 133.72,-80.53l0 -257.53c-226.23,12.1 -412,216.01 -464.24,402.65 -65.09,232.56 18.07,615.64 -28.6,840.51zm271.12 439.27l140.13 -5.07c-24,-84.79 -38.26,-173.64 -41.66,-265.28l-362.33 6.62 1.35 941.64 258.85 0 3.67 -677.91zm-439.66 -116.51l-5.9 -341.72 -102.04 180.13 107.94 161.59z"/>
  <path class="fil1" d="M7859.08 818.77l-73.35 -80 82.45 -315.48 107.65 0 -116.75 395.48zm34.79 297.26l-112.54 -307.83 90.58 -57.08 132.87 364.91 -110.91 0zm-274.98 0l0 -692.74 104.39 0 0 692.74 -104.39 0zm49.59 -294.5l0 -99.52 184.9 0 0 99.52 -184.9 0z"/>
  <path id="_1" class="fil1" d="M8107.22 1116.03l0 -99.52 105.38 0c18.37,0 32.85,-6.35 43.59,-18.87 10.56,-12.52 15.93,-29.91 15.93,-52.2l0 -76.26c0,-23.1 -5.2,-41.14 -15.77,-53.99 -10.4,-12.84 -25.04,-19.35 -43.75,-19.35l-105.38 0 0 -99.52 114.32 0c32.69,0 60.66,6.35 83.58,18.87 23.1,12.52 40.66,30.58 53.02,54.31 12.19,23.58 18.21,52.2 18.21,85.86l0 104.88c0,32.69 -6.19,60.82 -18.55,84.08 -12.36,23.42 -30.08,41.14 -53.01,53.34 -23.1,12.2 -50.73,18.37 -83.26,18.37l-114.32 0zm-55.28 0l0 -692.74 104.39 0 0 692.74 -104.39 0zm466.05 -692.74l0 692.74 -104.41 0 0 -692.74 104.41 0z"/>
  <path id="_2" class="fil1" d="M8655.23 847.39l0 -99.68 126.68 0c16.75,0 29.92,-5.52 39.52,-16.91 9.59,-11.22 14.32,-27 14.32,-47.33l-0.49 -93.83c0,-21.3 -4.55,-37.72 -13.82,-49.43 -9.26,-11.55 -22.43,-17.24 -39.52,-17.24l-126.68 0 0 -99.68 127.66 0c33.33,0 61.79,6.19 85.52,18.37 23.59,12.2 41.63,30.08 54.33,53.34 12.52,23.42 18.69,51.72 18.69,85.05l0 113.35c0,32.52 -6.35,60.17 -19.03,83.26 -12.68,22.92 -30.73,40.49 -54.31,52.51 -23.42,12.2 -51.88,18.21 -85.21,18.21l-127.66 0zm-52.51 268.64l0 -692.74 104.39 0 0 692.74 -104.39 0z"/>
  <path id="_3" class="fil1" d="M9033.32 1116.03l0.49 -692.74 104.39 0 0 692.74 -104.88 0zm66.35 -593.06l0 -99.68 189.12 0 0 99.68 -189.12 0z"/>
  <path id="_4" class="fil1" d="M9405.39 1116.03l0 -99.52 105.38 0c18.37,0 32.85,-6.35 43.59,-18.87 10.56,-12.52 15.93,-29.91 15.93,-52.2l0 -76.26c0,-23.1 -5.2,-41.14 -15.77,-53.99 -10.4,-12.84 -25.04,-19.35 -43.75,-19.35l-105.38 0 0 -99.52 114.32 0c32.69,0 60.66,6.35 83.58,18.87 23.1,12.52 40.66,30.58 53.02,54.31 12.19,23.58 18.21,52.2 18.21,85.86l0 104.88c0,32.69 -6.19,60.82 -18.55,84.08 -12.36,23.42 -30.08,41.14 -53.01,53.34 -23.1,12.2 -50.73,18.37 -83.26,18.37l-114.32 0zm-55.28 0l0 -692.74 104.39 0 0 692.74 -104.39 0zm466.05 -692.74l0 692.74 -104.41 0 0 -692.74 104.41 0z"/>
  <path id="_5" class="fil1" d="M10072.93 1123.19c-57.57,0 -102.13,-14.48 -133.84,-43.43 -31.88,-28.78 -47.65,-69.6 -47.65,-122.45l0 -35.6 104.23 0 0 31.39c0,22.59 6.83,39.99 20.33,52.2 13.49,12.19 32.52,18.37 56.92,18.37 23.24,0 41.14,-6.83 53.82,-20.33 12.68,-13.49 19.03,-32.52 19.03,-56.92l0 -74.31c0,-20.98 -4.71,-37.24 -14.3,-49.11 -9.43,-11.71 -23.1,-17.56 -40.98,-17.56l-92.86 0 0 -99.52 92.86 0c13.98,0.16 24.88,-4.23 32.52,-13.33 7.48,-9.27 11.39,-21.79 11.39,-37.73l0 -73.82c0,-20.98 -5.22,-37.24 -15.78,-48.63 -10.4,-11.38 -25.69,-17.07 -45.69,-17.07 -20.98,0 -37.24,5.69 -48.63,17.4 -11.38,11.53 -17.07,27.81 -17.07,48.78l0 33.82 -104.41 0 0 -33.33c0,-52.69 15.29,-93.51 45.7,-122.45 30.56,-28.95 73.34,-43.41 128.62,-43.41 51.56,0 91.39,14.46 119.69,43.41 28.13,28.94 42.27,69.92 42.27,122.94l0 73.34c0,16.75 -4.87,33.82 -14.95,50.89 -9.91,17.24 -24.23,33.18 -42.6,47.65 21.62,9.27 38.55,24.07 50.73,44.56 12.2,20.49 18.37,44.88 18.37,73.18l0 74.31c0,56.27 -15.61,99.7 -46.99,130.59 -31.23,30.73 -74.8,46.18 -130.74,46.18z"/>
  <path id="_6" class="fil1" d="M7850.46 1941.37c-79.35,0 -141.15,-20 -185.06,-60.01 -44.07,-39.99 -65.86,-96.75 -65.53,-170.09l0 -109.12c0,-73.02 21.95,-129.61 66.02,-169.6 43.91,-40.01 105.54,-60.01 184.57,-60.01 79.68,0 141.47,20 185.38,60.01 43.75,39.99 65.7,96.58 65.7,169.6l0 109.12c0,73.34 -21.95,130.1 -66.03,170.09 -43.89,40.01 -105.7,60.01 -185.05,60.01zm-52.37 73.83l0.49 -716.48 104.23 0 0 716.48 -104.72 0zm52.86 -178.22c46.34,0 82.28,-10.9 107.97,-32.85 25.53,-21.95 38.21,-52.85 38.21,-92.86l0 -109.12c0,-39.99 -12.68,-70.9 -38.05,-92.68 -25.36,-21.79 -61.47,-32.69 -108.13,-32.69 -46.67,-0.16 -82.94,10.56 -108.64,32.52 -25.69,21.79 -38.37,52.86 -38.05,92.86l0 109.12c0,40.01 12.69,70.9 38.39,92.86 25.53,21.95 61.63,32.85 108.3,32.85z"/>
  <polygon id="_7" class="fil1" points="8508.39,2014.7 8410.83,2014.7 8410.83,1525.4 8421.73,1538.74 8248.37,2014.7 8163.01,2014.7 8163.01,1322.45 8260.24,1322.45 8260.24,1815.18 8249.36,1801.69 8424.16,1322.45 8508.39,1322.45 "/>
  <path id="_8" class="fil1" d="M8818.19 2015.2l0.48 -692.74 104.25 0 0 692.74 -104.72 0zm-220.19 0l0.49 -692.74 104.39 0 0 692.74 -104.88 0zm58.7 -292.06l0 -98.54 221.97 0 0.49 98.54 -222.46 0z"/>
  <path id="_9" class="fil1" d="M8970.07 2015.2l162.46 -692.74 82.93 0 162.95 692.74 -107.17 0 -97.23 -502.64 -96.75 502.64 -107.17 0zm107.17 -129.61l0 -97.57 197.25 0 0 97.57 -197.25 0z"/>
  <path id="_10" class="fil1" d="M9654.68 2015.2l0.48 -692.74 104.25 0 0 692.74 -104.72 0zm-220.19 0l0.49 -692.74 104.39 0 0 692.74 -104.88 0zm58.7 -292.06l0 -98.54 221.97 0 0.49 98.54 -222.46 0z"/>
  <path id="_11" class="fil1" d="M10012.92 2022.36c-34.31,0 -63.59,-7 -88.13,-20.98 -24.4,-13.98 -43.1,-34.14 -55.95,-60.48 -12.84,-26.34 -19.35,-58.06 -19.35,-95.31l0 -353.52c0,-37.4 6.51,-69.44 19.35,-95.78 12.85,-26.34 31.55,-46.34 55.95,-60.17 24.55,-13.82 53.82,-20.81 88.13,-20.81 34.97,0 64.56,6.98 88.94,20.81 24.23,13.82 42.78,33.82 55.62,60.17 12.85,26.34 19.36,58.38 19.36,95.78l0 42.92 -105.71 0 0 -42.92c0,-15.29 -2.28,-28.3 -6.67,-39.02 -4.55,-10.74 -11.06,-19.2 -19.68,-25.05 -8.45,-5.85 -19.19,-8.78 -31.87,-8.78 -18.06,0 -32.2,6.35 -42.44,19.03 -10.09,12.69 -15.13,30.73 -15.13,53.83l0 353.52c0,22.94 5.04,40.66 15.13,53.34 10.24,12.69 24.39,19.03 42.44,19.03 18.69,0 33.17,-6.33 43.1,-19.03 10.07,-12.68 15.11,-30.56 15.11,-53.82l0 -42.44 105.71 0 0 42.44c0,37.56 -6.51,69.44 -19.36,95.78 -12.84,26.34 -31.39,46.5 -55.62,60.48 -24.39,13.98 -53.98,20.98 -88.94,20.98z"/>
  <path id="_12" class="fil1" d="M10303.03 2015.2l0 -99.52 105.38 0c18.37,0 32.85,-6.35 43.59,-18.87 10.56,-12.52 15.93,-29.91 15.93,-52.2l0 -76.26c0,-23.1 -5.2,-41.14 -15.77,-53.99 -10.4,-12.84 -25.04,-19.35 -43.75,-19.35l-105.38 0 0 -99.52 114.32 0c32.69,0 60.66,6.35 83.58,18.87 23.1,12.52 40.66,30.58 53.02,54.31 12.19,23.58 18.21,52.2 18.21,85.86l0 104.88c0,32.69 -6.19,60.82 -18.55,84.08 -12.36,23.42 -30.08,41.14 -53.01,53.34 -23.1,12.2 -50.73,18.37 -83.26,18.37l-114.32 0zm-55.28 0l0 -692.74 104.39 0 0 692.74 -104.39 0zm466.05 -692.74l0 692.74 -104.41 0 0 -692.74 104.41 0z"/>
  <path id="_13" class="fil1" d="M7585.55 2914.36l162.46 -692.74 82.93 0 162.95 692.74 -107.17 0 -97.23 -502.64 -96.75 502.64 -107.17 0zm107.17 -129.61l0 -97.57 197.25 0 0 97.57 -197.25 0z"/>
  <path id="_14" class="fil1" d="M8062.5 2914.36l0 -98.55 0.49 0c15.61,0 27.16,-5.2 34.95,-15.27 7.81,-10.24 11.71,-25.05 11.71,-44.4l0 -534.52 104.41 0 0 540.21c0,49.92 -12.03,87.81 -36.1,113.67 -23.91,25.85 -59.04,38.86 -105.54,38.86l-9.93 0zm241.97 0l0 -692.74 104.41 0 0 692.74 -104.41 0zm-124.72 -593.06l0 -99.68 179.05 0 0 99.68 -179.05 0z"/>
  <path id="_15" class="fil1" d="M8554.08 2914.36l0 -99.52 117.24 0c18.37,0 33.01,-6.35 43.59,-18.87 10.56,-12.52 15.94,-29.91 15.94,-52.2l0 -76.26c0,-23.1 -5.22,-41.14 -15.78,-53.99 -10.4,-12.84 -25.04,-19.35 -43.75,-19.35l-117.24 0 0 -99.52 126.36 0c32.68,0 60.48,6.35 83.58,18.87 22.92,12.52 40.65,30.58 52.85,54.31 12.2,23.58 18.37,52.2 18.37,85.86l0 104.88c0,32.69 -6.17,60.82 -18.69,84.08 -12.36,23.42 -30.1,41.14 -53.02,53.34 -23.08,12.2 -50.73,18.37 -83.09,18.37l-126.36 0zm-55.28 0l0 -692.74 104.39 0 0 692.74 -104.39 0z"/>
  <path id="_16" class="fil1" d="M9077.21 2640.36c-37.07,0 -68.77,-6.35 -94.96,-19.19 -26.18,-12.85 -46.34,-31.72 -60.01,-56.27 -13.82,-24.56 -20.81,-54.15 -20.81,-88.78l0 -98.22c0,-33.01 6.98,-61.31 20.81,-85.05 13.66,-23.59 33.82,-41.47 60.01,-53.51 26.18,-12.19 57.89,-18.2 94.96,-18.2l107.65 0 0 99.68 -102.93 0c-23.74,0 -42.28,6.83 -55.62,20.65 -13.33,13.82 -20,33.66 -20,59.35l0 61.96c0,24.71 6.67,43.89 20,57.56 13.33,13.66 31.88,20.49 55.62,20.49l102.93 0 0 99.52 -107.65 0zm-175.77 274.01l104.88 -317.26 96.1 21.95 -86.19 295.31 -114.8 0zm234 0l0 -693.22 104.72 0 0 693.22 -104.72 0z"/>
  <path id="_17" class="fil1" d="M9549.79 2914.36l0.48 -692.74 104.25 0 0 692.74 -104.72 0zm-220.19 0l0.49 -692.74 104.39 0 0 692.74 -104.88 0zm58.7 -292.06l0 -98.54 221.97 0 0.49 98.54 -222.46 0z"/>
  <path id="_18" class="fil1" d="M9908.03 2921.52c-34.31,0 -63.59,-7 -88.13,-20.98 -24.4,-13.98 -43.1,-34.14 -55.95,-60.48 -12.84,-26.34 -19.35,-58.06 -19.35,-95.31l0 -353.52c0,-37.4 6.51,-69.44 19.35,-95.78 12.85,-26.34 31.55,-46.34 55.95,-60.17 24.55,-13.82 53.82,-20.81 88.13,-20.81 34.97,0 64.56,6.98 88.94,20.81 24.23,13.82 42.78,33.82 55.62,60.17 12.85,26.34 19.36,58.38 19.36,95.78l0 42.92 -105.71 0 0 -42.92c0,-15.29 -2.28,-28.3 -6.67,-39.02 -4.55,-10.74 -11.06,-19.2 -19.68,-25.05 -8.45,-5.85 -19.19,-8.78 -31.87,-8.78 -18.06,0 -32.2,6.35 -42.44,19.03 -10.09,12.69 -15.13,30.73 -15.13,53.83l0 353.52c0,22.94 5.04,40.66 15.13,53.34 10.24,12.69 24.39,19.03 42.44,19.03 18.69,0 33.17,-6.33 43.1,-19.03 10.07,-12.68 15.11,-30.56 15.11,-53.82l0 -42.44 105.71 0 0 42.44c0,37.56 -6.51,69.44 -19.36,95.78 -12.84,26.34 -31.39,46.5 -55.62,60.48 -24.39,13.98 -53.98,20.98 -88.94,20.98z"/>
  <path id="_19" class="fil1" d="M10198.13 2914.36l0 -99.52 105.38 0c18.37,0 32.85,-6.35 43.59,-18.87 10.56,-12.52 15.93,-29.91 15.93,-52.2l0 -76.26c0,-23.1 -5.2,-41.14 -15.77,-53.99 -10.4,-12.84 -25.04,-19.35 -43.75,-19.35l-105.38 0 0 -99.52 114.32 0c32.69,0 60.66,6.35 83.58,18.87 23.1,12.52 40.66,30.58 53.02,54.31 12.19,23.58 18.21,52.2 18.21,85.86l0 104.88c0,32.69 -6.19,60.82 -18.55,84.08 -12.36,23.42 -30.08,41.14 -53.01,53.34 -23.1,12.2 -50.73,18.37 -83.26,18.37l-114.32 0zm-55.28 0l0 -692.74 104.39 0 0 692.74 -104.39 0zm466.05 -692.74l0 692.74 -104.41 0 0 -692.74 104.41 0z"/>
  <rect class="fil2" x="6978.38" y="391.96" width="38.69" height="2553.76"/>
 </g>
</svg>
