<?xml version="1.0" encoding="UTF-8"?>
<!DOCTYPE svg PUBLIC "-//W3C//DTD SVG 1.1//EN" "http://www.w3.org/Graphics/SVG/1.1/DTD/svg11.dtd">
<!-- Creator: CorelDRAW -->
<svg xmlns="http://www.w3.org/2000/svg" xml:space="preserve" width="82.6292mm" height="20.3283mm" version="1.1" style="shape-rendering:geometricPrecision; text-rendering:geometricPrecision; image-rendering:optimizeQuality; fill-rule:evenodd; clip-rule:evenodd"
viewBox="0 0 13381.49 3292.09"
 xmlns:xlink="http://www.w3.org/1999/xlink"
 xmlns:xodm="http://www.corel.com/coreldraw/odm/2003">
 <defs>
  <style type="text/css">
   <![CDATA[
    .fil2 {fill:#2B2A29}
    .fil0 {fill:black}
    .fil1 {fill:black;fill-rule:nonzero}
   ]]>
  </style>
 </defs>
 <g id="Слой_x0020_1">
  <metadata id="CorelCorpID_0Corel-Layer"/>
  <path class="fil0" d="M4297.94 2085.84c4.02,-840.6 1041.78,-1116.18 1487.69,-486.92 213.53,301.32 80.07,671.49 315.75,920.23 3.55,-149.1 258.21,-940.23 -362.37,-1380.83 -708.05,-491.77 -1701,37.78 -1740.79,862.36 -26.95,558.54 310.99,1015.35 812.68,1160.05 331.16,95.52 647.69,28.49 835.61,-81.49 -72.67,-61.65 -125.12,-128.84 -197.19,-224.2 -171.34,49.6 -214.16,76.47 -443.13,48.92 -142.74,-17.17 -270.73,-77.8 -363.52,-146.03 -184.08,-135.29 -335.13,-340.48 -344.72,-672.09zm868.97 -338.68c290.95,29.99 265.87,313.77 298.95,530.54 108.44,642.02 580.55,997.9 1121.74,963.55 671.83,-55.66 853.52,-1039.68 159.34,-1164.43 -307.67,-35 -604.45,236.02 -485.61,548.64 48.32,127.16 212.2,209.7 335.13,118.16 33.13,-24.68 68.91,-68.36 60.49,-112.78 -62.66,2.19 -59.4,33.98 -134.89,16.03 -89.88,-21.36 -117.02,-128.29 -72.49,-210.19 40.78,-75.03 119.73,-128.41 211.42,-108.28 131.45,28.86 212.64,153.2 222.69,291.24 11.55,158.58 -157.09,333.46 -349.11,339.26 -387.13,11.79 -625.11,-306.69 -695.62,-540.92 -47.16,-156.65 -69.25,-385.98 -106.07,-546.49 -46.11,-200.94 -406.84,-516.58 -808.81,-394.42 -714.05,216.99 -548.22,1434.88 432.82,1199.46l-83.24 -273.96c-224.34,26.38 -352.72,14.32 -446.65,-155.37 -133.88,-241.87 65.26,-528.35 339.91,-500.04zm-2551.76 20.1c172.55,-225.45 129.25,-407.18 135.99,-666.68l-279.68 0 0 278.64c0,191.16 -156.42,347.59 -347.6,347.59l0 0c-191.18,0 -347.59,-156.42 -347.59,-347.59 0,-726.35 -359.08,-1427.64 -1164.02,-1376.58 -671.83,55.66 -874.33,1102.16 -180.17,1226.89 307.67,35.01 604.45,-236.02 485.63,-548.63 -48.34,-127.18 -212.2,-209.72 -335.13,-118.16 -33.13,24.66 -68.92,68.36 -60.49,112.76 62.64,-2.17 59.4,-33.98 134.89,-16.03 89.86,21.38 117.01,128.29 72.47,210.21 -40.76,75.01 -119.73,128.41 -211.42,108.28 -131.45,-28.88 -212.64,-153.22 -222.69,-291.24 -11.53,-158.59 168.1,-388.56 360.12,-394.34 346.32,-10.54 514.33,193.17 648.66,403.1 282.08,440.83 164,1140.64 189.66,1600.9 98.35,-56.37 162.61,-192.31 441.77,-257.15 100.92,-23.43 207.34,-12.15 308.73,-34.72 182.12,-40.57 252.72,-108.23 370.87,-237.25zm-1343.67 1417.99c-0.1,-624.5 190.01,-2054.98 -182.56,-2393.73l-77.83 2393.73 260.39 0zm1492.29 -1301.38c-72.71,93.43 -142.87,168 -246.9,236.9 137.09,55.42 283.07,227.78 354.11,398.52 83.16,199.86 60.91,432.4 61.9,665.97l296.94 0c17.39,-937.47 -155.16,-909.59 -260.68,-1082.98 229.19,-221.4 303.96,-585.89 324.12,-971.82 20.68,-396.46 222.95,-770.07 705.39,-777.97l0 -284.64c-771.97,1.12 -970.56,523.56 -1001.67,1004.26 -23.94,369.87 -89.51,622.62 -233.2,811.77zm-292.07 1301.38l267.32 0c29.72,-350.47 26.11,-680.61 -294.05,-894.33 -298.19,-199.08 -746.22,-68.08 -904.16,300.28 -46.79,109.07 -55.68,431.78 -47.22,594.05l282.92 0 0 -351.76c0,-191.18 156.41,-347.6 347.59,-347.6l0 0c191.18,0 347.6,156.42 347.6,347.6l0 351.76zm976.15 -1248.54l418.92 8.94c10.49,-100.91 32.96,-198.24 65.83,-290.64l-178.12 -4.32c-14.77,-74.12 -14.53,-468.02 -1.12,-545.47 12.73,-73.59 58.22,-140.8 95.84,-180.04 92.44,-96.39 132.39,-63.5 149.44,-89.99l0 -287.81c-252.83,13.52 -460.45,241.41 -518.83,450 -72.75,259.91 20.19,688.03 -31.97,939.34zm303 490.92l156.6 -5.67c-26.82,-94.75 -42.75,-194.06 -46.56,-296.48l-404.93 7.4 1.51 1052.36 289.28 0 4.1 -757.62zm-491.36 -130.2l-6.59 -381.9 -114.04 201.32 120.63 180.59z"/>
  <path class="fil1" d="M8783.19 915.05l-81.98 -89.41 92.15 -352.57 120.31 0 -130.48 441.98zm38.88 332.22l-125.77 -344.02 101.23 -63.79 148.49 407.81 -123.95 0zm-307.31 0l0 -774.2 116.67 0 0 774.2 -116.67 0zm55.42 -329.12l0 -111.22 206.64 0 0 111.22 -206.64 0z"/>
  <path id="_1" class="fil1" d="M9060.51 1247.26l0 -111.22 117.77 0c20.53,0 36.71,-7.09 48.71,-21.09 11.81,-13.99 17.8,-33.43 17.8,-58.33l0 -85.23c0,-25.81 -5.81,-45.98 -17.62,-60.34 -11.63,-14.35 -27.98,-21.62 -48.89,-21.62l-117.77 0 0 -111.22 127.76 0c36.54,0 67.79,7.09 93.41,21.09 25.81,13.99 45.44,34.17 59.26,60.7 13.62,26.35 20.36,58.33 20.36,95.95l0 117.22c0,36.54 -6.92,67.97 -20.73,93.96 -13.81,26.17 -33.62,45.98 -59.24,59.61 -25.81,13.64 -56.7,20.53 -93.05,20.53l-127.76 0zm-61.78 0l0 -774.2 116.67 0 0 774.2 -116.67 0zm520.85 -774.2l0 774.2 -116.68 0 0 -774.2 116.68 0z"/>
  <path id="_2" class="fil1" d="M9672.95 947.03l0 -111.4 141.57 0c18.72,0 33.44,-6.17 44.16,-18.9 10.72,-12.53 16,-30.17 16,-52.89l-0.55 -104.86c0,-23.81 -5.09,-42.15 -15.45,-55.24 -10.35,-12.91 -25.07,-19.27 -44.16,-19.27l-141.57 0 0 -111.4 142.67 0c37.25,0 69.05,6.92 95.58,20.53 26.36,13.64 46.53,33.62 60.71,59.61 13.99,26.17 20.89,57.8 20.89,95.05l0 126.67c0,36.34 -7.09,67.24 -21.26,93.05 -14.17,25.62 -34.35,45.25 -60.7,58.69 -26.17,13.64 -57.98,20.36 -95.22,20.36l-142.67 0zm-58.69 300.23l0 -774.2 116.67 0 0 774.2 -116.67 0z"/>
  <path id="_3" class="fil1" d="M10095.5 1247.26l0.55 -774.2 116.67 0 0 774.2 -117.22 0zm74.16 -662.8l0 -111.4 211.36 0 0 111.4 -211.36 0z"/>
  <path id="_4" class="fil1" d="M10511.32 1247.26l0 -111.22 117.77 0c20.53,0 36.71,-7.09 48.71,-21.09 11.81,-13.99 17.8,-33.43 17.8,-58.33l0 -85.23c0,-25.81 -5.81,-45.98 -17.62,-60.34 -11.63,-14.35 -27.98,-21.62 -48.89,-21.62l-117.77 0 0 -111.22 127.76 0c36.54,0 67.79,7.09 93.41,21.09 25.81,13.99 45.44,34.17 59.26,60.7 13.62,26.35 20.36,58.33 20.36,95.95l0 117.22c0,36.54 -6.92,67.97 -20.73,93.96 -13.81,26.17 -33.62,45.98 -59.24,59.61 -25.81,13.64 -56.7,20.53 -93.05,20.53l-127.76 0zm-61.78 0l0 -774.2 116.67 0 0 774.2 -116.67 0zm520.85 -774.2l0 774.2 -116.68 0 0 -774.2 116.68 0z"/>
  <path id="_5" class="fil1" d="M11257.36 1255.26c-64.34,0 -114.14,-16.18 -149.57,-48.54 -35.63,-32.16 -53.25,-77.78 -53.25,-136.84l0 -39.79 116.49 0 0 35.08c0,25.25 7.63,44.7 22.72,58.33 15.08,13.62 36.34,20.53 63.61,20.53 25.98,0 45.98,-7.63 60.15,-22.72 14.17,-15.08 21.26,-36.34 21.26,-63.61l0 -83.05c0,-23.45 -5.26,-41.62 -15.98,-54.88 -10.54,-13.09 -25.81,-19.63 -45.8,-19.63l-103.78 0 0 -111.22 103.78 0c15.63,0.18 27.81,-4.73 36.34,-14.9 8.36,-10.36 12.73,-24.36 12.73,-42.17l0 -82.5c0,-23.45 -5.83,-41.62 -17.64,-54.35 -11.63,-12.71 -28.71,-19.08 -51.06,-19.08 -23.45,0 -41.62,6.36 -54.35,19.45 -12.71,12.89 -19.08,31.08 -19.08,54.51l0 37.8 -116.68 0 0 -37.25c0,-58.88 17.09,-104.5 51.08,-136.84 34.15,-32.36 81.96,-48.52 143.74,-48.52 57.62,0 102.14,16.16 133.77,48.52 31.43,32.34 47.24,78.14 47.24,137.4l0 81.96c0,18.72 -5.44,37.8 -16.71,56.88 -11.08,19.27 -27.08,37.09 -47.61,53.25 24.16,10.36 43.08,26.9 56.7,49.8 13.64,22.9 20.53,50.15 20.53,81.78l0 83.05c0,62.88 -17.44,111.42 -52.52,145.95 -34.9,34.35 -83.6,51.61 -146.11,51.61z"/>
  <path id="_6" class="fil1" d="M11709.88 1255.26c-38.35,0 -71.06,-7.82 -98.5,-23.45 -27.27,-15.63 -48.16,-38.15 -62.53,-67.6 -14.35,-29.44 -21.62,-64.89 -21.62,-106.51l0 -395.08c0,-41.8 7.27,-77.6 21.62,-107.05 14.36,-29.44 35.26,-51.79 62.53,-67.24 27.43,-15.45 60.15,-23.26 98.5,-23.26 39.08,0 72.15,7.81 99.4,23.26 27.08,15.45 47.81,37.8 62.15,67.24 14.36,29.44 21.64,65.25 21.64,107.05l0 47.97 -118.14 0 0 -47.97c0,-17.09 -2.54,-31.63 -7.45,-43.61 -5.09,-12 -12.36,-21.46 -21.99,-28 -9.44,-6.54 -21.44,-9.81 -35.61,-9.81 -20.18,0 -35.98,7.09 -47.43,21.26 -11.27,14.19 -16.91,34.35 -16.91,60.16l0 395.08c0,25.64 5.64,45.44 16.91,59.61 11.45,14.19 27.26,21.26 47.43,21.26 20.89,0 37.07,-7.08 48.16,-21.26 11.26,-14.17 16.89,-34.15 16.89,-60.15l0 -47.43 118.14 0 0 47.43c0,41.98 -7.27,77.6 -21.64,107.05 -14.35,29.44 -35.08,51.97 -62.15,67.6 -27.26,15.63 -60.32,23.45 -99.4,23.45z"/>
  <path id="_7" class="fil1" d="M12240.74 915.05l-81.98 -89.41 92.15 -352.57 120.31 0 -130.48 441.98zm38.88 332.22l-125.77 -344.02 101.23 -63.79 148.49 407.81 -123.95 0zm-307.31 0l0 -774.2 116.67 0 0 774.2 -116.67 0zm55.42 -329.12l0 -111.22 206.64 0 0 111.22 -206.64 0z"/>
  <polygon id="_8" class="fil1" points="12842.27,1246.71 12733.24,1246.71 12733.24,699.87 12745.41,714.78 12551.68,1246.71 12456.28,1246.71 12456.28,473.06 12564.94,473.06 12564.94,1023.73 12552.78,1008.65 12748.14,473.06 12842.27,473.06 "/>
  <path id="_9" class="fil1" d="M13328.97 1246.71l-109.04 0 0 -546.84 12.18 14.92 -193.74 531.93 -95.4 0 0 -773.65 108.67 0 0 550.67 -12.16 -15.08 195.36 -535.59 94.14 0 0 773.65zm-146.84 -990.27l95.78 -1.1c0,51.43 -12.18,91.42 -36.71,119.78 -24.53,28.34 -58.88,42.71 -103.22,42.71l-4.36 0c-44.36,0 -78.71,-14.36 -103.24,-42.71 -24.52,-28.36 -36.7,-68.34 -36.7,-119.78l95.78 1.1c0,23.43 3.81,41.6 11.45,54.51 7.63,12.91 18.53,19.45 32.71,19.45l4.36 0c13.81,0 24.53,-6.54 32.34,-19.45 7.82,-12.91 11.82,-31.08 11.82,-54.51z"/>
  <path id="_10" class="fil1" d="M8773.55 2169.64c-88.68,0 -157.75,-22.35 -206.82,-67.06 -49.25,-44.7 -73.6,-108.13 -73.23,-190.09l0 -121.95c0,-81.6 24.53,-144.84 73.78,-189.54 49.07,-44.71 117.95,-67.06 206.27,-67.06 89.05,0 158.11,22.35 207.18,67.06 48.89,44.7 73.43,107.94 73.43,189.54l0 121.95c0,81.96 -24.53,145.4 -73.8,190.09 -49.05,44.71 -118.12,67.06 -206.81,67.06zm-58.53 82.51l0.55 -800.73 116.49 0 0 800.73 -117.04 0zm59.08 -199.18c51.79,0 91.95,-12.18 120.67,-36.71 28.53,-24.53 42.71,-59.06 42.71,-103.78l0 -121.95c0,-44.7 -14.17,-79.24 -42.53,-103.58 -28.34,-24.36 -68.7,-36.54 -120.84,-36.54 -52.16,-0.18 -92.7,11.81 -121.41,36.34 -28.71,24.36 -42.88,59.08 -42.53,103.78l0 121.95c0,44.71 14.19,79.24 42.9,103.78 28.53,24.53 68.88,36.71 121.04,36.71z"/>
  <polygon id="_11" class="fil1" points="9508.85,2251.6 9399.82,2251.6 9399.82,1704.76 9411.99,1719.68 9218.26,2251.6 9122.85,2251.6 9122.85,1477.95 9231.52,1477.95 9231.52,2028.62 9219.36,2013.54 9414.71,1477.95 9508.85,1477.95 "/>
  <path id="_12" class="fil1" d="M9855.08 2252.15l0.53 -774.2 116.5 0 0 774.2 -117.04 0zm-246.08 0l0.55 -774.2 116.67 0 0 774.2 -117.22 0zm65.6 -326.4l0 -110.12 248.07 0 0.55 110.12 -248.62 0z"/>
  <path id="_13" class="fil1" d="M10024.81 2252.15l181.56 -774.2 92.68 0 182.11 774.2 -119.78 0 -108.67 -561.74 -108.13 561.74 -119.78 0zm119.78 -144.84l0 -109.04 220.44 0 0 109.04 -220.44 0z"/>
  <path id="_14" class="fil1" d="M10789.93 2252.15l0.53 -774.2 116.5 0 0 774.2 -117.04 0zm-246.08 0l0.55 -774.2 116.67 0 0 774.2 -117.22 0zm65.6 -326.4l0 -110.12 248.07 0 0.55 110.12 -248.62 0z"/>
  <path id="_15" class="fil1" d="M11190.29 2260.15c-38.35,0 -71.06,-7.82 -98.5,-23.45 -27.27,-15.63 -48.16,-38.15 -62.53,-67.6 -14.35,-29.44 -21.62,-64.89 -21.62,-106.51l0 -395.08c0,-41.8 7.27,-77.6 21.62,-107.05 14.36,-29.44 35.26,-51.79 62.53,-67.24 27.43,-15.45 60.15,-23.26 98.5,-23.26 39.08,0 72.15,7.81 99.4,23.26 27.08,15.45 47.81,37.8 62.15,67.24 14.36,29.44 21.64,65.25 21.64,107.05l0 47.97 -118.14 0 0 -47.97c0,-17.09 -2.54,-31.63 -7.45,-43.61 -5.09,-12 -12.36,-21.46 -21.99,-28 -9.44,-6.54 -21.44,-9.81 -35.61,-9.81 -20.18,0 -35.98,7.09 -47.43,21.26 -11.27,14.19 -16.91,34.35 -16.91,60.16l0 395.08c0,25.64 5.64,45.44 16.91,59.61 11.45,14.19 27.26,21.26 47.43,21.26 20.89,0 37.07,-7.08 48.16,-21.26 11.26,-14.17 16.89,-34.15 16.89,-60.15l0 -47.43 118.14 0 0 47.43c0,41.98 -7.27,77.6 -21.64,107.05 -14.35,29.44 -35.08,51.97 -62.15,67.6 -27.26,15.63 -60.32,23.45 -99.4,23.45z"/>
  <path id="_16" class="fil1" d="M11637.18 2260.15c-40.89,0 -75.79,-7.45 -105.04,-22.36 -29.09,-14.9 -51.26,-36.34 -66.71,-64.5 -15.45,-28 -23.26,-61.8 -23.26,-101.59l0 -413.82c0,-39.98 7.81,-74.16 23.26,-102.14 15.45,-27.98 37.62,-49.43 66.71,-63.97 29.25,-14.54 64.15,-21.8 105.04,-21.8 41.07,0 76.33,7.26 105.41,21.8 29.07,14.54 51.24,35.98 66.69,63.97 15.45,27.98 23.27,62.15 23.27,102.14l0 413.82c0,39.79 -7.82,73.59 -23.27,101.59 -15.45,28.16 -37.62,49.6 -66.69,64.5 -29.09,14.92 -64.34,22.36 -105.41,22.36zm0 -115.05c24.71,-0.36 43.98,-7.45 57.6,-21.26 13.81,-13.81 20.36,-33.62 20,-59.06l0 -400.36c0.36,-25.26 -6.19,-44.89 -20,-58.88 -13.62,-13.99 -32.89,-20.89 -57.6,-20.53 -24.53,0 -43.61,6.9 -57.25,20.71 -13.81,13.99 -20.36,33.44 -19.98,58.71l0 400.36c-0.37,25.44 6.17,45.25 19.98,59.06 13.64,13.81 32.71,20.91 57.25,21.26z"/>
  <path id="_17" class="fil1" d="M11992.3 2252.15l0 -110.14 121.39 0c19.81,0 35.08,-5.09 45.8,-15.26 10.72,-10.19 16,-24.18 16,-42.35l0 -102.14c0,-24.53 -5.81,-43.43 -17.26,-56.7 -11.64,-13.44 -27.63,-19.98 -48.16,-19.98l-117.77 0 0 -109.23 116.13 0c18.35,0 32.71,-6.17 43.06,-18.35 10.36,-12.18 15.45,-29.62 15.45,-52.34l0 -81.05c0,-17.99 -5.09,-32.16 -15.45,-41.98 -10.35,-10.01 -24.34,-14.92 -41.98,-14.92l-117.22 0 0 -109.77 123.03 0c53.25,0 94.32,13.64 123.58,41.07 29.09,27.27 43.61,65.98 43.61,115.95l0 82.69c0,35.81 -9.26,65.25 -27.79,88.33 -18.36,23.08 -44.54,37.8 -78.16,44.16 36.89,5.26 65.43,19.98 85.6,43.98 20.34,23.98 30.35,55.24 30.35,93.95l0 103.78c0,50.71 -14.19,90.14 -42.71,118.32 -28.73,27.98 -69.25,41.98 -121.77,41.98l-135.76 0zm-69.78 0l0 -774.2 116.67 0 0 774.2 -116.67 0z"/>
  <path id="_18" class="fil1" d="M12441.73 2252.15l0 -111.22 117.77 0c20.53,0 36.71,-7.09 48.71,-21.09 11.81,-13.99 17.8,-33.43 17.8,-58.33l0 -85.23c0,-25.81 -5.81,-45.98 -17.62,-60.34 -11.63,-14.35 -27.98,-21.62 -48.89,-21.62l-117.77 0 0 -111.22 127.76 0c36.54,0 67.79,7.09 93.41,21.09 25.81,13.99 45.44,34.17 59.26,60.7 13.62,26.35 20.36,58.33 20.36,95.95l0 117.22c0,36.54 -6.92,67.97 -20.73,93.96 -13.81,26.17 -33.62,45.98 -59.24,59.61 -25.81,13.64 -56.7,20.53 -93.05,20.53l-127.76 0zm-61.78 0l0 -774.2 116.67 0 0 774.2 -116.67 0zm520.85 -774.2l0 774.2 -116.68 0 0 -774.2 116.68 0z"/>
  <path id="_19" class="fil1" d="M13381.49 2251.6l-109.04 0 0 -546.84 12.18 14.92 -193.74 531.93 -95.4 0 0 -773.65 108.67 0 0 550.67 -12.16 -15.08 195.36 -535.59 94.14 0 0 773.65zm-146.84 -990.27l95.78 -1.1c0,51.43 -12.18,91.42 -36.71,119.78 -24.53,28.34 -58.88,42.71 -103.22,42.71l-4.36 0c-44.36,0 -78.71,-14.36 -103.24,-42.71 -24.52,-28.36 -36.7,-68.34 -36.7,-119.78l95.78 1.1c0,23.43 3.81,41.6 11.45,54.51 7.63,12.91 18.53,19.45 32.71,19.45l4.36 0c13.81,0 24.53,-6.54 32.34,-19.45 7.82,-12.91 11.82,-31.08 11.82,-54.51z"/>
  <path id="_20" class="fil1" d="M8477.5 3257.05l181.56 -774.2 92.68 0 182.11 774.2 -119.78 0 -108.67 -561.74 -108.13 561.74 -119.78 0zm119.78 -144.84l0 -109.04 220.44 0 0 109.04 -220.44 0z"/>
  <path id="_21" class="fil1" d="M9010.53 3257.05l0 -110.14 0.55 0c17.44,0 30.35,-5.81 39.06,-17.07 8.73,-11.45 13.09,-28 13.09,-49.62l0 -597.37 116.68 0 0 603.74c0,55.79 -13.44,98.14 -40.34,127.03 -26.72,28.89 -65.98,43.43 -117.95,43.43l-11.09 0zm270.42 0l0 -774.2 116.68 0 0 774.2 -116.68 0zm-139.39 -662.8l0 -111.4 200.1 0 0 111.4 -200.1 0z"/>
  <path id="_22" class="fil1" d="M9559.92 3257.05l0 -111.22 131.03 0c20.53,0 36.89,-7.09 48.71,-21.09 11.81,-13.99 17.81,-33.43 17.81,-58.33l0 -85.23c0,-25.81 -5.83,-45.98 -17.64,-60.34 -11.63,-14.35 -27.98,-21.62 -48.89,-21.62l-131.03 0 0 -111.22 141.22 0c36.52,0 67.6,7.09 93.41,21.09 25.62,13.99 45.43,34.17 59.06,60.7 13.64,26.35 20.53,58.33 20.53,95.95l0 117.22c0,36.54 -6.9,67.97 -20.89,93.96 -13.81,26.17 -33.64,45.98 -59.26,59.61 -25.8,13.64 -56.7,20.53 -92.86,20.53l-141.22 0zm-61.78 0l0 -774.2 116.67 0 0 774.2 -116.67 0z"/>
  <path id="_23" class="fil1" d="M10144.56 2950.82c-41.43,0 -76.86,-7.09 -106.12,-21.44 -29.26,-14.36 -51.79,-35.45 -67.06,-62.88 -15.45,-27.45 -23.26,-60.52 -23.26,-99.22l0 -109.77c0,-36.89 7.81,-68.52 23.26,-95.05 15.27,-26.36 37.8,-46.35 67.06,-59.81 29.26,-13.62 64.7,-20.34 106.12,-20.34l120.31 0 0 111.4 -115.03 0c-26.53,0 -47.26,7.63 -62.15,23.08 -14.9,15.45 -22.35,37.62 -22.35,66.33l0 69.25c0,27.61 7.45,49.05 22.35,64.33 14.9,15.27 35.63,22.9 62.15,22.9l115.03 0 0 111.22 -120.31 0zm-196.44 306.22l117.22 -354.57 107.4 24.53 -96.33 330.03 -128.29 0zm261.51 0l0 -774.73 117.04 0 0 774.73 -117.04 0z"/>
  <path id="_24" class="fil1" d="M10672.7 3257.05l0.53 -774.2 116.5 0 0 774.2 -117.04 0zm-246.08 0l0.55 -774.2 116.67 0 0 774.2 -117.22 0zm65.6 -326.4l0 -110.12 248.07 0 0.55 110.12 -248.62 0z"/>
  <path id="_25" class="fil1" d="M11073.06 3265.05c-38.35,0 -71.06,-7.82 -98.5,-23.45 -27.27,-15.63 -48.16,-38.15 -62.53,-67.6 -14.35,-29.44 -21.62,-64.89 -21.62,-106.51l0 -395.08c0,-41.8 7.27,-77.6 21.62,-107.05 14.36,-29.44 35.26,-51.79 62.53,-67.24 27.43,-15.45 60.15,-23.26 98.5,-23.26 39.08,0 72.15,7.81 99.4,23.26 27.08,15.45 47.81,37.8 62.15,67.24 14.36,29.44 21.64,65.25 21.64,107.05l0 47.97 -118.14 0 0 -47.97c0,-17.09 -2.54,-31.63 -7.45,-43.61 -5.09,-12 -12.36,-21.46 -21.99,-28 -9.44,-6.54 -21.44,-9.81 -35.61,-9.81 -20.18,0 -35.98,7.09 -47.43,21.26 -11.27,14.19 -16.91,34.35 -16.91,60.16l0 395.08c0,25.64 5.64,45.44 16.91,59.61 11.45,14.19 27.26,21.26 47.43,21.26 20.89,0 37.07,-7.08 48.16,-21.26 11.26,-14.17 16.89,-34.15 16.89,-60.15l0 -47.43 118.14 0 0 47.43c0,41.98 -7.27,77.6 -21.64,107.05 -14.35,29.44 -35.08,51.97 -62.15,67.6 -27.26,15.63 -60.32,23.45 -99.4,23.45z"/>
  <rect class="fil2" x="7798.93" y="438.05" width="43.24" height="2854.04"/>
 </g>
</svg>
